# xmcd
#
# Track frame offsets:
#  150
#  13781
#  25565
#  37428
#  50020
#  63268
#  77109
#  88140
#  100546
#  112772
#  129171
#  142432
#  155391
#  167337
#  178317
#  191141
#  200659
#  213614
#  226875
#  238022
#  249579
#  261397
#  272300
#  286216
#  296512
#  308655
#
# Disc length: 4387 seconds
#
# Revision: 0
# Processed by: cddbd v1.5.2PL0 Copyright (c) Steve Scherf et al.
# Submitted via: AltoMP3_Maker 3.0
#
DISCID=7811211a
DTITLE=Various Artist - Head Rag Hop - Piano Blues 1925-1929 CD D
DYEAR=1900
DGENRE=
TTITLE0=Mack Rhinehart and Brownie Stubblefield - Dirty No Gooder
TTITLE1=Black Boy Shine - Brown House Blues
TTITLE2=Mary Johnson - I just Can't Take It
TTITLE3=Black Ivory King - The Flying Crow
TTITLE4=Lee Brown - Little Girl Little Girl
TTITLE5=Alice Moore - Push Cart Pusher
TTITLE6=Albert Ammons - Shout for Joy take 2
TTITLE7=Champion Jack Dupree - Junker Blues
TTITLE8=Pete Johnson/Albert Ammons - Boogie Woogie Man tk 1
TTITLE9=Jimmy Yancey - The Rocks
TTITLE10=Big Maceo - Chicago Breakdown
TTITLE11=Jimmie Gordon - That Woman's a Pearl Diver
TTITLE12=Dick Davis Orchestra - Screamin' Boogie
TTITLE13=Dirty Red (Nelson) - Mother Fuyer
TTITLE14=Amos Milburn - Chicken Shack Boogie
TTITLE15=Camille Howard - X-Temporaneous Boogie
TTITLE16=Sunnyland Slim - Down Home Child
TTITLE17=Little Willie Littlefield - Little Willie's Boogie
TTITLE18=Lee hunter - Lee's Boogie
TTITLE19=Roosevelt Sykes - Blues n' Boogie
TTITLE20=Willie Johnson and His Orch - Sampson Street Boogie
TTITLE21=Piano Red - Red's Boogie
TTITLE22=Jimmy McCracklin - My Life Depends on You
TTITLE23=Willard McDaniel - 3 A.M. Boogie
TTITLE24=Eddie Boyd - Five Long Years
TTITLE25=Otis Spann - Otis in the Dark
EXTD=
EXTT0=
EXTT1=
EXTT2=
EXTT3=
EXTT4=
EXTT5=
EXTT6=
EXTT7=
EXTT8=
EXTT9=
EXTT10=
EXTT11=
EXTT12=
EXTT13=
EXTT14=
EXTT15=
EXTT16=
EXTT17=
EXTT18=
EXTT19=
EXTT20=
EXTT21=
EXTT22=
EXTT23=
EXTT24=
EXTT25=
PLAYORDER=
